<svg width="164" height="164" viewBox="0 0 164 164" fill="none" xmlns="http://www.w3.org/2000/svg">
<path d="M20.6005 39.478C11.1984 53.1007 6.63265 69.4812 7.63242 86.0032C8.6322 102.525 15.1399 118.236 26.116 130.625C37.0922 143.015 51.9036 151.369 68.1847 154.353C84.4657 157.337 101.277 154.779 115.934 147.087C130.59 139.396 142.247 127.014 149.041 111.921C155.835 96.8274 157.376 79.8924 153.416 63.8207C149.456 47.7491 140.225 33.468 127.197 23.2584C114.168 13.0487 98.0943 7.49956 81.542 7.49719C77.0032 7.49745 72.4737 7.90724 68.0086 8.72157" stroke="#05B439" stroke-linecap="round" stroke-linejoin="round"/>
<path d="M33.7371 26.24C31.0805 28.5717 28.5762 31.076 26.24 33.7371" stroke="#05B439" stroke-linecap="round" stroke-linejoin="round"/>
<path d="M139.507 106.493C153.034 74.733 138.253 38.0204 106.493 24.4932C74.733 10.966 38.0204 25.7467 24.4932 57.5069C10.966 89.267 25.7467 125.98 57.5068 139.507C89.267 153.034 125.98 138.253 139.507 106.493Z" fill="#05B439"/>
<path d="M53.4171 75.0341L77.2402 102.149L116.206 46.8572" stroke="white" stroke-width="6" stroke-linecap="round" stroke-linejoin="round"/>
</svg>
