<svg width="169" height="137" viewBox="0 0 169 137" fill="none" xmlns="http://www.w3.org/2000/svg">
<path d="M82.5825 136.552C120.195 136.552 150.686 106.061 150.686 68.4487C150.686 30.8362 120.195 0.345337 82.5825 0.345337C44.9701 0.345337 14.4791 30.8362 14.4791 68.4487C14.4791 106.061 44.9701 136.552 82.5825 136.552Z" fill="#5E13D3"/>
<path d="M82.7957 128.871C116.166 128.871 143.218 101.819 143.218 68.4487C143.218 35.0785 116.166 8.02661 82.7957 8.02661C49.4255 8.02661 22.3737 35.0785 22.3737 68.4487C22.3737 101.819 49.4255 128.871 82.7957 128.871Z" fill="white"/>
<path d="M143.218 68.4487C143.218 68.4487 143.218 68.0995 143.121 67.4594C143.024 66.8193 143.024 65.83 142.927 64.5886L142.81 62.4743C142.81 61.7179 142.558 60.8644 142.422 59.9527C142.152 57.8497 141.73 55.7689 141.162 53.7262C139.755 48.0775 137.499 42.6752 134.47 37.7042C130.082 30.3972 124.199 24.1014 117.205 19.2305C110.211 14.3596 102.266 11.0239 93.8908 9.44258C91.3802 8.96769 88.8394 8.66953 86.2871 8.55031C84.9875 8.55031 83.6879 8.39513 82.4077 8.41453L78.4313 8.60851C77.7718 8.60851 77.0929 8.6085 76.4916 8.74428L74.5518 9.05464C73.2134 9.26801 71.8557 9.42318 70.4979 9.71414C67.7855 10.3208 65.1159 11.1048 62.5062 12.0612C59.8445 13.027 57.2522 14.1741 54.7474 15.4945C53.4866 16.1928 52.2645 16.9881 51.0231 17.7252C50.4024 18.1325 49.7429 18.4622 49.0834 18.9084L47.3183 20.2274C44.9195 22.0106 42.6449 23.9548 40.5099 26.0465C38.4164 28.2347 36.4723 30.5611 34.6908 33.0101L33.3135 34.9498L32.0916 36.8895L30.8889 38.8292C30.4648 39.4866 30.0888 40.1737 29.7639 40.8853C29.1044 42.2819 28.4255 43.6979 27.7272 45.1139C27.0289 46.5299 26.6603 48.0817 26.0978 49.5559C24.1299 55.6769 23.0903 62.0583 23.0136 68.4875C23.0123 74.9002 23.9802 81.2762 25.8844 87.3997L27.5138 91.861L29.5505 96.0896C29.8637 96.8008 30.2403 97.4824 30.6755 98.1263L31.8782 100.066L33.0808 102.006L34.4774 103.945C36.2589 106.394 38.203 108.721 40.2965 110.909C42.4315 113.001 44.7062 114.945 47.1049 116.728L48.8701 118.047C49.452 118.493 50.1114 118.823 50.7128 119.23C51.9736 119.967 53.1956 120.763 54.4564 121.461C56.9612 122.781 59.5536 123.929 62.2153 124.894C64.8249 125.851 67.4945 126.635 70.2069 127.241C71.5647 127.532 72.9225 127.688 74.2609 127.901L76.2006 128.211C76.8601 128.211 77.539 128.211 78.1403 128.347L82.1167 128.541C83.4357 128.541 84.7353 128.541 85.9961 128.405C88.5485 128.287 91.0894 127.989 93.5999 127.513C102.77 125.812 111.41 121.97 118.816 116.301C124.967 111.655 130.163 105.866 134.12 99.2513C137.15 94.2804 139.406 88.878 140.812 83.2293C141.381 81.1867 141.803 79.1058 142.073 77.0028C142.209 76.0911 142.384 75.2377 142.461 74.4812L142.578 72.3669C142.675 71.1255 142.733 70.175 142.772 69.4961C142.787 69.1714 142.82 68.8477 142.869 68.5262V69.4961C142.869 70.175 142.869 71.1255 142.752 72.3669C142.752 73.007 142.752 73.7247 142.752 74.5006C142.752 75.2765 142.519 76.1105 142.403 77.0222C142.155 79.142 141.759 81.2419 141.22 83.3069C139.851 89.0043 137.62 94.4594 134.605 99.4841C130.245 106.856 124.373 113.22 117.376 118.158C110.378 123.097 102.414 126.496 94.0072 128.134C91.4457 128.621 88.8529 128.926 86.2483 129.045C84.9487 129.045 83.6297 129.22 82.3689 129.2L78.3537 129.007C77.6748 129.007 76.9959 129.007 76.317 128.871L74.2803 128.58C72.9419 128.347 71.5647 128.192 70.1875 127.92C67.4396 127.296 64.7319 126.506 62.0795 125.554C59.3591 124.578 56.7084 123.418 54.1461 122.082C52.8659 121.383 51.6245 120.569 50.2667 119.812C49.646 119.424 48.9864 119.075 48.3269 118.629L46.5424 117.291C44.109 115.513 41.8017 113.568 39.637 111.472C37.4868 109.264 35.4907 106.911 33.6627 104.43L32.2661 102.491L31.0441 100.551L29.8221 98.6112C29.3956 97.9452 29.0133 97.2518 28.6776 96.5357L26.6215 92.2295C26.059 90.736 25.5159 89.2424 24.9534 87.7294C22.9568 81.5202 21.8978 75.0479 21.811 68.5262C21.9116 61.9742 22.9971 55.4746 25.031 49.2455C25.5935 47.7325 26.1366 46.2195 26.6991 44.726C27.2616 43.2324 28.0763 41.8746 28.7552 40.4392C29.0867 39.721 29.4692 39.0274 29.8997 38.3637L31.1217 36.424L32.3437 34.4843L33.7403 32.5446C37.3053 27.5165 41.6769 23.1122 46.6782 19.5097L48.4821 18.1713C49.1063 17.7414 49.7539 17.3464 50.4218 16.9881C51.6826 16.2316 52.9241 15.4169 54.2043 14.7186C56.7666 13.382 59.4173 12.2219 62.1377 11.2465C64.7901 10.2948 67.4977 9.50456 70.2457 8.88006C71.6229 8.6085 72.9807 8.45332 74.3385 8.23996L76.3752 7.9296C77.0541 7.9296 77.733 7.9296 78.4119 7.79382L82.4271 7.59985C83.7655 7.59985 85.0845 7.71623 86.3065 7.75503C88.9111 7.87479 91.5039 8.17944 94.0654 8.66669C102.527 10.2773 110.549 13.6724 117.596 18.6258C124.643 23.5792 130.554 29.9773 134.935 37.3939C137.913 42.4492 140.098 47.9311 141.414 53.6486C141.953 55.7136 142.349 57.8135 142.597 59.9333C142.713 60.845 142.869 61.6791 142.946 62.4549C143.024 63.2308 142.946 63.9485 142.946 64.5886C142.946 65.83 142.946 66.7805 143.063 67.4594L143.218 68.4487Z" fill="#101010"/>
<path d="M110.961 66.7414C110.166 67.0406 109.349 67.2742 108.517 67.4397L101.786 69.0497C96.0636 70.3687 88.2077 72.1532 79.285 74.0929L78.7807 74.2093V71.8817C78.7807 62.3965 78.7807 53.8423 78.8971 47.6352C78.8971 44.6481 78.9941 42.1652 79.0329 40.2837C79.0203 39.3824 79.0722 38.4814 79.1881 37.5875C79.3183 38.4801 79.3767 39.3818 79.3627 40.2837C79.3627 42.2234 79.3626 44.6481 79.4984 47.6352C79.4984 53.8423 79.6148 62.3965 79.6148 71.8817V73.6274L79.1105 73.2201C87.9556 71.2804 95.9084 69.5928 101.65 68.4096L108.458 67.0712C109.28 66.8838 110.118 66.7734 110.961 66.7414Z" fill="#101010"/>
<path d="M152.334 91.2791C152.399 90.9427 152.49 90.612 152.606 90.2898C152.78 89.6497 153.149 88.7381 153.479 87.5355C154.518 84.1448 155.309 80.683 155.845 77.1774C157.684 65.5895 156.58 53.7252 152.635 42.6755C148.689 31.6259 142.029 21.7454 133.267 13.9427C130.627 11.572 127.82 9.39392 124.868 7.42528C123.84 6.68819 122.928 6.22266 122.443 5.83472C122.147 5.66858 121.868 5.47367 121.609 5.25281C121.927 5.37263 122.232 5.522 122.521 5.69894C123.103 6.02869 123.995 6.45543 125.043 7.15373C128.088 9.01959 130.969 11.1416 133.655 13.4966C142.633 21.2617 149.449 31.2181 153.439 42.3975C157.43 53.5769 158.459 65.5987 156.427 77.2938C155.839 80.8205 154.957 84.2918 153.789 87.6712C153.401 88.8739 152.994 89.7661 152.761 90.3868C152.655 90.7001 152.511 90.9996 152.334 91.2791Z" fill="#101010"/>
<path d="M163.915 61.5628C163.779 61.5628 163.701 59.1575 163.216 55.3169C161.983 45.2699 158.68 35.5876 153.518 26.8807C151.578 23.5444 150.123 21.6047 150.24 21.5077C150.66 21.8926 151.037 22.3218 151.365 22.7879C152.044 23.6414 152.955 24.9216 154.022 26.6673C156.769 30.9734 158.996 35.5898 160.656 40.4199C162.308 45.2537 163.376 50.268 163.837 55.3557C164.012 57.2954 164.07 58.886 164.07 59.9722C164.083 60.5068 164.031 61.041 163.915 61.5628Z" fill="#101010"/>
<path d="M17.9704 35.842C17.8808 36.1706 17.7436 36.4843 17.5631 36.7731C17.2722 37.3744 16.7678 38.2085 16.2441 39.3529C14.6909 42.5409 13.3622 45.8335 12.2677 49.2067C8.15317 62.0915 7.8018 75.883 11.255 88.9606C14.7082 102.038 21.8225 113.858 31.7618 123.032C32.6541 123.924 33.43 124.526 33.9149 124.972C34.1789 125.185 34.4195 125.426 34.6326 125.69C34.3326 125.529 34.0526 125.334 33.7985 125.108C33.2748 124.7 32.4795 124.118 31.5484 123.284C28.8398 120.954 26.335 118.398 24.0612 115.642C16.4251 106.551 11.2735 95.6378 9.10812 83.9647C6.94278 72.2916 7.83754 60.2567 11.7052 49.0321C12.8495 45.6494 14.2703 42.3667 15.9532 39.2171C16.5351 38.0921 17.0782 37.2774 17.408 36.6955C17.5767 36.3991 17.7646 36.114 17.9704 35.842Z" fill="#101010"/>
<path d="M1.75446 63.3666C1.89024 63.3666 1.5799 65.7718 1.46352 69.6512C1.28881 74.6963 1.62674 79.746 2.47215 84.7228C3.34314 89.6954 4.7077 94.5688 6.54556 99.2707C7.96155 102.879 9.06721 105.09 8.93143 105.09C8.56468 104.654 8.25805 104.172 8.01976 103.654C7.49604 102.704 6.77834 101.288 6.08005 99.5034C4.06326 94.8171 2.61117 89.9074 1.75446 84.878C0.902857 79.8435 0.642475 74.7268 0.97859 69.6318C1.11437 67.6921 1.32772 66.1016 1.50229 65.0347C1.51075 64.4699 1.59559 63.9087 1.75446 63.3666Z" fill="#101010"/>
<path d="M131.347 78.4189C129.058 77.9533 127.215 77.546 127.215 77.5266C127.215 77.5072 129.155 77.8758 131.366 78.3413C133.577 78.8068 135.478 79.1948 135.478 79.2142C135.478 79.2335 133.655 78.8844 131.347 78.4189Z" fill="#101010"/>
<path d="M131.347 78.4189C131.347 78.2832 132.316 78.4189 133.829 78.5547L135.071 78.7293H135.401H135.595C135.595 78.7293 135.168 78.7293 135.148 79.0202C135.118 79.1188 135.123 79.2248 135.162 79.3202C135.2 79.4157 135.271 79.4948 135.362 79.544L134.644 79.4082L131.424 78.7681L128.224 78.0892L127.525 77.934C127.63 77.9156 127.724 77.8606 127.792 77.7788C127.859 77.697 127.896 77.5939 127.894 77.4879C127.894 77.2745 127.564 77.0223 127.603 77.0805H127.7H128.03L129.232 77.4103C130.707 77.8176 131.599 78.128 131.579 78.2638C130.744 78.385 129.892 78.3322 129.077 78.1086L127.855 77.8952H127.506H127.351C127.351 77.8952 126.982 77.7012 127.021 77.4685C127.06 77.2357 127.176 77.0417 127.428 77.0417H127.719L128.456 77.1581C129.465 77.3133 130.551 77.5267 131.696 77.7594C132.84 77.9922 133.926 78.2444 134.896 78.4771L135.614 78.6517H135.886C135.983 78.7048 136.059 78.7895 136.101 78.8919C136.144 78.9942 136.15 79.108 136.118 79.2142C136.118 79.4276 135.653 79.5634 135.633 79.5052H135.478H135.148L133.655 79.253C132.22 78.8651 131.308 78.5547 131.347 78.4189Z" fill="#101010"/>
<path d="M125.489 93.6458C123.549 92.4626 121.862 91.4927 121.881 91.4733C121.9 91.4539 123.53 92.385 125.528 93.5682C127.526 94.7514 129.155 95.7213 129.136 95.7407C129.116 95.7601 127.487 94.829 125.489 93.6458Z" fill="#101010"/>
<path d="M125.489 93.6453C125.489 93.5289 126.439 93.8975 127.797 94.5764L128.902 95.1583L129.193 95.2941C129.193 95.2941 128.767 95.2941 128.689 95.4299C128.621 95.5077 128.583 95.6076 128.583 95.7111C128.583 95.8146 128.621 95.9146 128.689 95.9924C128.689 95.9924 128.689 95.9924 128.592 95.9924L127.971 95.6238L125.139 93.9945L122.327 92.3069L121.706 91.9384C121.811 91.9583 121.92 91.9399 122.012 91.8865C122.105 91.8331 122.175 91.7483 122.211 91.6474C122.346 91.4535 122.055 91.1043 122.075 91.1819L122.366 91.3565L123.394 92.0548C124.655 92.9276 125.333 93.5095 125.333 93.6259C125.333 93.7423 124.383 93.3738 123.025 92.6755L121.92 92.0742L121.609 91.8996C121.609 91.8996 121.299 91.5892 121.435 91.3953C121.47 91.2904 121.544 91.2026 121.64 91.1488C121.737 91.095 121.851 91.0792 121.958 91.1043L122.23 91.2207L122.889 91.5698C123.782 92.0612 124.732 92.6043 125.741 93.1992C126.749 93.7811 127.68 94.363 128.553 94.9061L129.174 95.3135L129.387 95.4687C129.452 95.5556 129.487 95.661 129.487 95.7693C129.487 95.8776 129.452 95.983 129.387 96.07C129.29 96.2639 128.825 96.2445 128.825 96.1863H128.728L128.437 96.0118L127.37 95.3329C126.168 94.363 125.411 93.7617 125.489 93.6453Z" fill="#101010"/>
<path d="M114.976 106.137C113.482 104.353 112.318 102.917 112.318 102.917C112.318 102.917 113.579 104.333 115.092 106.098C116.605 107.864 117.808 109.318 117.788 109.318C117.769 109.318 116.489 107.902 114.976 106.137Z" fill="#101010"/>
<path d="M114.976 106.137C115.092 106.137 115.79 106.68 116.915 107.767L117.788 108.659L118.021 108.911C118.021 108.911 117.633 108.717 117.497 108.911C117.405 108.968 117.337 109.057 117.308 109.162C117.28 109.266 117.292 109.378 117.342 109.474L116.857 108.911L114.723 106.448L112.609 103.945L112.144 103.383C112.236 103.433 112.343 103.449 112.446 103.427C112.549 103.406 112.641 103.349 112.706 103.267C112.9 103.131 112.706 102.685 112.706 102.762L112.92 103.034L113.657 104.023C114.568 105.245 115.092 105.963 114.976 106.137C114.859 106.312 114.161 105.594 113.036 104.469L112.182 103.557L111.95 103.286C111.95 103.286 111.775 102.917 111.95 102.743C112.034 102.672 112.14 102.633 112.25 102.633C112.36 102.633 112.467 102.672 112.551 102.743C112.63 102.798 112.702 102.864 112.764 102.937L113.269 103.48C113.967 104.217 114.685 105.051 115.441 105.943C116.198 106.836 116.915 107.689 117.536 108.484L118.002 109.066C118.002 109.066 118.002 109.066 118.157 109.28C118.312 109.493 118.157 109.842 118.002 109.862C117.846 109.881 117.42 109.862 117.439 109.862L117.226 109.59L116.43 108.601C115.402 107.03 114.879 106.215 114.976 106.137Z" fill="#101010"/>
<path d="M101.01 114.556C100.156 112.403 99.4772 110.676 99.4966 110.676C99.516 110.676 100.234 112.403 101.087 114.556C101.941 116.709 102.619 118.435 102.6 118.435C102.581 118.435 101.863 116.709 101.01 114.556Z" fill="#101010"/>
<path d="M101.01 114.556C101.145 114.556 101.611 115.332 102.27 116.709L102.794 117.834L102.93 118.144C102.93 118.144 102.62 117.814 102.445 117.931C102.339 117.954 102.245 118.017 102.184 118.108C102.122 118.198 102.098 118.308 102.115 118.416L101.824 117.756C101.417 116.748 101.01 115.817 100.602 114.711L99.4191 111.666L99.1475 110.987C99.227 111.051 99.3263 111.086 99.4288 111.086C99.5312 111.086 99.6305 111.051 99.71 110.987C99.9428 110.987 99.9234 110.444 99.904 110.502V110.676L100.02 110.987L100.408 112.17C100.874 113.625 101.107 114.536 100.971 114.594C100.835 114.653 100.37 113.819 99.7294 112.422C99.5743 112.034 99.3997 111.666 99.2251 111.278L99.0893 110.967V110.676C99.0893 110.676 99.0893 110.25 99.2639 110.172C99.4384 110.094 99.71 110.172 99.8458 110.172C99.9048 110.255 99.9506 110.347 99.9816 110.443L100.292 111.122C100.699 112.034 101.126 113.062 101.553 114.148C101.98 115.235 102.387 116.263 102.717 117.213L102.969 117.931C102.969 117.931 102.969 117.931 102.969 118.183C102.969 118.435 102.775 118.707 102.658 118.687C102.542 118.668 102.096 118.474 102.135 118.435L102.018 118.105C101.883 117.717 101.747 117.329 101.592 116.922C101.249 116.177 101.052 115.374 101.01 114.556Z" fill="#101010"/>
<path d="M85.1621 117.97C85.0651 115.642 84.9876 113.76 85.007 113.76C85.0264 113.76 85.1427 115.7 85.2397 117.95C85.3367 120.2 85.4143 122.159 85.3949 122.159C85.3755 122.159 85.1621 120.375 85.1621 117.97Z" fill="#101010"/>
<path d="M85.1624 117.97C85.2982 117.97 85.4727 118.901 85.6473 120.414L85.7831 121.655V122.062C85.7831 122.062 85.6085 121.655 85.3951 121.713C85.1818 121.772 84.9296 121.83 84.9296 122.043V121.306C84.9296 120.22 84.8132 119.153 84.755 118.047C84.6969 116.942 84.7551 115.855 84.6387 114.769V113.974C84.6812 114.073 84.7565 114.154 84.852 114.203C84.9475 114.253 85.0571 114.268 85.1624 114.245C85.3951 114.245 85.5309 113.799 85.4922 113.857V114.284C85.4922 114.692 85.4922 115.099 85.4922 115.526C85.5739 116.362 85.4881 117.206 85.24 118.008C84.923 117.226 84.7647 116.389 84.7744 115.545C84.7744 115.118 84.7744 114.711 84.7744 114.304V113.799C84.7744 113.799 84.7744 113.373 85.1042 113.373C85.4339 113.373 85.5503 113.373 85.6279 113.664C85.6385 113.76 85.6385 113.858 85.6279 113.954V114.692C85.6279 115.7 85.7831 116.806 85.8219 117.97C85.8607 119.134 85.9189 120.239 85.9189 121.267V122.004C85.9297 122.094 85.9297 122.186 85.9189 122.276C85.9189 122.489 85.5503 122.703 85.434 122.644C85.3176 122.586 84.9878 122.256 85.046 122.237V121.733C85.046 121.325 85.046 120.918 85.046 120.491C84.9175 119.651 84.9571 118.794 85.1624 117.97Z" fill="#101010"/>
<path d="M68.8686 116.01C69.5087 113.78 70.0518 111.976 70.0712 111.976C70.0906 111.976 69.5863 113.799 68.9462 116.03C68.3061 118.261 67.7436 120.064 67.7242 120.064C67.7048 120.064 68.2091 118.241 68.8686 116.01Z" fill="#101010"/>
<path d="M68.8686 116.01C69.0044 116.01 68.8686 116.98 68.5195 118.474C68.4225 118.881 68.3449 119.289 68.2479 119.696V120.026V120.123C68.2479 120.123 68.2479 119.676 67.9957 119.657C67.8987 119.622 67.7926 119.62 67.6943 119.651C67.596 119.683 67.5109 119.746 67.4526 119.832L67.6466 119.133C67.9375 118.086 68.2285 117.058 68.5388 115.991C68.8492 114.924 69.1596 113.896 69.4699 112.849L69.6833 112.15C69.6906 112.255 69.7328 112.354 69.8032 112.431C69.8736 112.508 69.968 112.56 70.0712 112.577C70.304 112.577 70.5756 112.267 70.5174 112.306L70.401 112.635L69.9743 113.799C69.4505 115.235 69.082 116.107 68.9462 116.069C68.8104 116.03 68.9462 115.079 69.2954 113.586L69.6057 112.383V112.034C69.6057 112.034 69.819 111.665 70.0518 111.743C70.2846 111.821 70.4592 111.918 70.4592 112.17C70.4683 112.267 70.4683 112.364 70.4592 112.461L70.2846 113.198C70.0518 114.168 69.7609 115.254 69.4311 116.36C69.1014 117.465 68.7716 118.551 68.4613 119.502L68.2091 120.2C68.1901 120.289 68.1573 120.374 68.1121 120.452C68.0586 120.548 67.9717 120.621 67.8679 120.657C67.7641 120.693 67.6508 120.689 67.5496 120.646C67.3363 120.646 67.2393 120.161 67.2975 120.142V120.006L67.3944 119.657L67.8017 118.474C68.3449 116.844 68.7328 115.972 68.8686 116.01Z" fill="#101010"/>
<path d="M54.1268 108.911C55.4652 106.971 56.5708 105.478 56.5902 105.497C56.6096 105.517 55.5428 107.068 54.185 108.969C52.8272 110.87 51.741 112.383 51.7216 112.383C51.7022 112.383 52.8272 110.812 54.1268 108.911Z" fill="#101010"/>
<path d="M54.1267 108.911C54.2431 108.911 53.797 109.842 53.0017 111.142C52.769 111.491 52.5555 111.84 52.3422 112.189L52.1676 112.48C52.1676 112.48 52.284 112.034 52.1676 111.957C52.0867 111.887 51.9834 111.849 51.8767 111.849C51.7699 111.849 51.6667 111.887 51.5857 111.957L52.0125 111.355L53.9522 108.659C54.6117 107.767 55.2324 106.894 55.8919 106.002L56.3186 105.42C56.2911 105.523 56.3014 105.632 56.3477 105.728C56.3939 105.824 56.4731 105.901 56.5708 105.943C56.7648 106.079 57.1333 105.827 57.0557 105.846L56.8423 106.099L56.0665 107.068C55.0966 108.252 54.4565 109.008 54.3401 108.872C54.2237 108.737 54.6699 107.941 55.4846 106.661C55.7173 106.293 55.9306 105.943 56.1634 105.614L56.3574 105.323C56.3574 105.323 56.6872 105.051 56.8812 105.187C56.981 105.237 57.0595 105.322 57.1022 105.425C57.1449 105.528 57.1491 105.643 57.1139 105.749C56.9975 105.982 57.0169 105.905 56.9781 106.002L56.5708 106.642C56.0277 107.476 55.3876 108.387 54.6311 109.338C53.8746 110.288 53.2927 111.278 52.6914 111.995L52.2258 112.577L52.0512 112.791C51.9672 112.862 51.8607 112.901 51.7506 112.901C51.6405 112.901 51.534 112.862 51.4499 112.791C51.256 112.694 51.3141 112.228 51.4499 112.228L51.6439 111.937L52.4198 110.948C53.409 109.532 54.1267 108.834 54.1267 108.911Z" fill="#101010"/>
<path d="M42.5855 97.428L46.0189 94.984C46.0189 94.984 44.5252 96.1284 42.6437 97.4862C40.7622 98.844 39.2104 99.9303 39.191 99.9109L42.5855 97.428Z" fill="#101010"/>
<path d="M42.5856 97.4279C42.5856 97.5443 41.9843 98.1844 40.8011 99.1543L39.8313 99.9496L39.5791 100.163C39.5791 100.163 39.8118 99.775 39.5791 99.6198C39.5262 99.5284 39.4425 99.4588 39.3431 99.4233C39.2436 99.3877 39.1348 99.3886 39.036 99.4258L39.6179 98.9991L42.2559 97.0594L44.9327 95.1197L45.534 94.7123C45.4679 94.7949 45.4319 94.8975 45.4319 95.0033C45.4319 95.109 45.4679 95.2117 45.534 95.2942C45.6698 95.5076 46.1159 95.2942 46.0383 95.2942L45.7474 95.4688L44.7 96.1477C43.4197 96.943 42.5662 97.4085 42.4886 97.2921C42.4111 97.1758 43.0899 96.5163 44.2926 95.5658L45.2818 94.7899L45.5534 94.5765C45.5534 94.5765 45.9413 94.4214 46.0771 94.5765C46.2129 94.7317 46.2905 94.9839 46.0771 95.1585L45.8637 95.3718L45.2818 95.8374C44.4672 96.4581 43.5943 97.1176 42.6438 97.7771C41.6933 98.4366 40.7041 99.0961 39.9476 99.7168L39.3269 100.124L39.0941 100.26C38.9002 100.376 38.5316 100.26 38.5316 100.066C38.5316 99.872 38.5317 99.484 38.6286 99.5228L38.9196 99.3094L39.9476 98.6305C41.674 97.7577 42.4886 97.3115 42.5856 97.4279Z" fill="#101010"/>
<path d="M35.3503 82.8025C37.581 82.1236 39.3849 81.5999 39.3849 81.6193C39.3849 81.6387 37.6003 82.2012 35.3697 82.8801C33.139 83.559 31.3351 84.0827 31.3351 84.0633C31.3351 84.0439 33.1196 83.5202 35.3503 82.8025Z" fill="#101010"/>
<path d="M35.3504 82.8026C35.3504 82.9383 34.5163 83.3263 33.1003 83.8694L31.9365 84.2961L31.6067 84.4125C31.6067 84.4125 31.9558 84.141 31.8589 83.9276C31.7619 83.7142 31.6261 83.5203 31.4128 83.5784C31.1994 83.6366 31.4127 83.5784 31.5097 83.5784L32.1886 83.3457L35.331 82.3758L38.4539 81.4448L39.1522 81.2508C39.0664 81.3131 39.0056 81.404 38.9808 81.507C38.9559 81.6101 38.9685 81.7187 39.0164 81.8133C39.0164 82.0461 39.5402 82.0849 39.482 82.0461H39.3656H39.0358L37.8332 82.337C36.3396 82.6862 35.4085 82.8414 35.3697 82.7056C35.3309 82.5698 36.1844 82.1819 37.6198 81.6581C38.0271 81.5224 38.4151 81.3672 38.8224 81.2508L39.1522 81.1344H39.288C39.288 81.1344 39.7147 81.1344 39.7923 81.3478C39.8395 81.4474 39.8499 81.5606 39.8215 81.6672C39.7931 81.7738 39.7277 81.8668 39.6371 81.9297L39.3656 82.0461L38.6673 82.2982C37.7168 82.628 36.7276 82.9577 35.5444 83.3069C34.3611 83.656 33.3525 83.947 32.3826 84.1992L31.6649 84.3931H31.3933C31.18 84.3931 30.889 84.141 30.9278 84.0246C30.9666 83.9082 31.18 83.4815 31.1994 83.5397H31.2964L31.6261 83.4427L32.8481 83.1323C34.3611 82.822 35.3116 82.6668 35.3504 82.8026Z" fill="#101010"/>
<path d="M33.2555 66.6253C35.5832 66.6253 37.4647 66.7999 37.4647 66.8193C37.4647 66.8387 35.525 66.8193 33.2555 66.7029L29.0464 66.5089C29.0464 66.5089 30.8503 66.5283 33.2555 66.6253Z" fill="#101010"/>
<path d="M33.2555 66.6255C32.454 66.8797 31.6101 66.972 30.7726 66.897H29.0851C29.0851 66.897 29.5119 66.7612 29.4731 66.5479C29.4974 66.4426 29.481 66.332 29.4269 66.2384C29.3729 66.1448 29.2855 66.0752 29.1821 66.0436C29.1821 66.0436 29.1821 66.0436 29.2791 66.0436H29.9968H33.2749L36.553 66.1793H37.2707C37.1698 66.2146 37.085 66.2849 37.0316 66.3775C36.9782 66.47 36.9598 66.5787 36.9797 66.6837C36.9797 66.9164 37.3871 67.091 37.3289 67.0328H36.8827L35.6413 66.897C34.8057 66.9054 33.9761 66.754 33.1973 66.4509C33.9991 66.1985 34.844 66.1127 35.6801 66.1987H37.4453C37.4453 66.1987 37.8526 66.3345 37.8332 66.5673C37.847 66.6768 37.8213 66.7876 37.7609 66.88C37.7005 66.9724 37.6093 67.0403 37.5034 67.0716C37.4072 67.0886 37.3087 67.0886 37.2125 67.0716H36.456H33.1779C32.0141 67.0716 30.9085 67.0716 29.8998 66.897H29.1627H28.8911C28.6777 66.897 28.4838 66.5091 28.5614 66.3927C28.639 66.2763 28.9687 65.966 28.9881 66.0242H29.4924H30.7339C31.6075 66.0437 32.467 66.2487 33.2555 66.6255Z" fill="#101010"/>
<path d="M36.5336 50.545C38.7061 51.3791 40.413 52.0774 40.413 52.0968C40.413 52.1162 38.6285 51.4567 36.5336 50.6226C34.4387 49.7885 32.6542 49.1096 32.6542 49.0902C32.6542 49.0708 34.3611 49.8079 36.5336 50.545Z" fill="#101010"/>
<path d="M36.5336 50.5452C36.5336 50.6809 35.5637 50.5452 34.109 50.0214L32.9063 49.6335H32.596C32.596 49.6335 33.0422 49.6335 33.0616 49.4007C33.1145 49.3123 33.1319 49.207 33.1103 49.1063C33.0887 49.0055 33.0296 48.9166 32.9451 48.8576C32.9451 48.8576 32.9451 48.8576 33.0421 48.8576L33.721 49.1098L36.7858 50.2542L39.8311 51.4568L40.51 51.709C40.4074 51.7119 40.3088 51.7502 40.2311 51.8173C40.1533 51.8844 40.1011 51.9764 40.0833 52.0775C39.9863 52.3103 40.3354 52.6013 40.2966 52.5237L39.9863 52.3879L38.8613 51.8642C37.4841 51.2241 36.6306 50.7779 36.6888 50.6422C37.5253 50.675 38.348 50.8659 39.1134 51.2047L40.3161 51.612L40.6264 51.7284H40.7234C40.7234 51.7284 41.0725 51.9806 40.9756 52.2133C40.9526 52.3176 40.893 52.4102 40.8076 52.4742C40.7221 52.5383 40.6166 52.5696 40.51 52.5625H40.219L39.5014 52.3297L36.4172 51.2047L33.3719 49.9826L32.693 49.6723L32.4602 49.5559C32.3696 49.493 32.3043 49.4 32.2759 49.2934C32.2474 49.1868 32.2578 49.0737 32.305 48.974C32.305 48.7606 32.8093 48.7024 32.8287 48.7606L33.1585 48.8964L34.3029 49.3813C35.7577 50.0408 36.6694 50.5452 36.5336 50.5452Z" fill="#101010"/>
<path d="M44.8162 36.5791C46.6007 38.0727 48.0361 39.2947 48.0167 39.3141C47.9973 39.3335 46.5425 38.1309 44.7774 36.6373C43.0122 35.1438 41.5575 33.9217 41.5769 33.9023C41.5962 33.8829 43.0317 35.0274 44.8162 36.5791Z" fill="#101010"/>
<path d="M44.8161 36.5791C44.8161 36.6761 43.9238 36.1717 42.7018 35.2601C42.3527 35.0273 42.0229 34.7751 41.6932 34.523L41.4216 34.329C41.4216 34.329 41.8484 34.4648 41.9453 34.329C42.0135 34.2512 42.0511 34.1512 42.0511 34.0477C42.0511 33.9443 42.0135 33.8443 41.9453 33.7665L42.5079 34.232L45.0295 36.3075L47.5317 38.4412L48.0748 38.9067C47.976 38.8696 47.8672 38.8686 47.7677 38.9042C47.6683 38.9397 47.5847 39.0093 47.5317 39.1007C47.3766 39.2753 47.5317 39.6826 47.5317 39.605L47.299 39.3723L46.3873 38.5188C45.3011 37.4519 44.661 36.7537 44.7385 36.5791C44.8161 36.4045 45.6308 36.967 46.8528 37.8981L47.8421 38.6546L48.1136 38.8873C48.1136 38.8873 48.3658 39.2365 48.2106 39.4305C48.1514 39.5199 48.063 39.5862 47.9605 39.618C47.858 39.6498 47.7476 39.6452 47.6481 39.605C47.5549 39.57 47.4693 39.5173 47.3959 39.4499L46.7946 39.0037C45.9993 38.383 45.1459 37.6847 44.2536 36.9282C43.3613 36.1717 42.5273 35.454 41.7708 34.7751L41.2277 34.2708L41.0337 34.0768C40.966 33.9912 40.9292 33.8853 40.9292 33.7762C40.9292 33.6671 40.966 33.5612 41.0337 33.4755C41.1501 33.301 41.6156 33.4755 41.5962 33.4755L41.8484 33.7083L42.7794 34.5424C44.273 35.7644 44.9131 36.4627 44.8161 36.5791Z" fill="#101010"/>
<path d="M57.2304 25.9884C58.433 27.9281 59.3835 29.5963 59.3641 29.6157C59.3447 29.6351 58.3554 28.0251 57.1528 26.0272C55.9502 24.0293 54.9997 22.4194 55.0191 22.4C55.0385 22.3806 56.0666 23.9905 57.2304 25.9884Z" fill="#101010"/>
<path d="M57.2304 25.9883C57.0946 25.9883 56.5127 25.3094 55.6398 24.0486L54.9221 23.0206L54.7281 22.749C54.7281 22.749 55.0773 23.0206 55.2518 22.8848C55.4264 22.749 55.601 22.5357 55.4847 22.3611L55.8726 22.9818L57.5795 25.7556C58.1614 26.7254 58.7046 27.6953 59.2477 28.5876L59.6356 29.2083C59.5578 29.1401 59.4579 29.1025 59.3544 29.1025C59.2509 29.1025 59.1509 29.1401 59.0731 29.2083C58.8597 29.3246 58.9567 29.7708 58.9567 29.6932L58.8015 29.4022L58.2196 28.2966C57.5213 26.9388 57.1334 26.0659 57.2692 26.0077C57.4049 25.9495 57.9674 26.6672 58.8403 27.9474L59.5192 28.9949L59.7132 29.3052C59.7132 29.3052 59.8296 29.7126 59.7132 29.829C59.6292 29.9001 59.5226 29.9391 59.4126 29.9391C59.3025 29.9391 59.196 29.9001 59.1119 29.829C59.0428 29.7602 58.984 29.6818 58.9373 29.5962L58.53 28.9755C57.961 28.122 57.3791 27.191 56.7842 26.1823C56.1829 25.1931 55.6204 24.2426 55.1355 23.3503L54.7669 22.6908C54.7239 22.6154 54.685 22.5377 54.6505 22.4581C54.6227 22.3517 54.6305 22.2393 54.6725 22.1377C54.7145 22.0362 54.7886 21.9511 54.8833 21.8955C55.0579 21.7792 55.4653 22.0119 55.4265 22.0701L55.601 22.3805L56.2023 23.4667C56.9588 25.0379 57.3468 25.9107 57.2304 25.9883Z" fill="#101010"/>
<path d="M72.3795 19.9752C72.8645 22.2447 73.2524 24.0874 73.233 24.1068C73.2136 24.1262 72.7869 22.2641 72.3019 19.9946C71.817 17.7252 71.4291 15.863 71.4485 15.863C71.4678 15.863 71.8946 17.7058 72.3795 19.9752Z" fill="#101010"/>
<path d="M72.3794 19.9751C72.2437 19.9751 71.9139 19.1023 71.5065 17.6475L71.1574 16.4449V16.1151C71.1574 16.1151 71.4096 16.4837 71.6036 16.4061C71.7975 16.3285 72.0303 16.1927 72.0109 15.9793L72.166 16.6776C72.4182 17.7445 72.651 18.7919 72.8838 19.8782C73.1165 20.9644 73.3299 22.0312 73.5626 23.0787L73.6984 23.7964C73.6454 23.7054 73.5606 23.6372 73.4603 23.605C73.3601 23.5728 73.2514 23.5788 73.1553 23.6218C72.9031 23.6218 72.8644 24.1067 72.8838 24.0485V23.9322V23.6024L72.6898 22.3804C72.4782 21.5706 72.4254 20.7274 72.5346 19.8976C72.6704 19.8976 73.0001 20.751 73.3881 22.2252C73.5045 22.6519 73.6015 23.0399 73.7178 23.4472V23.7964V23.9322C73.7178 23.9322 73.7178 24.3589 73.4657 24.4171C73.2135 24.4753 73.0001 24.4171 72.9031 24.2231C72.8062 24.0291 72.9031 24.0291 72.9031 23.9322L72.7092 23.2145C72.457 22.2446 72.2049 21.1584 71.9527 20.0139C71.7005 18.8695 71.5065 17.7833 71.3126 16.794L71.1962 16.0569C71.1962 16.0569 71.1962 16.0569 71.1962 15.8048C71.1962 15.5526 71.4872 15.3198 71.6036 15.3586C71.7199 15.3974 72.1079 15.6496 72.0691 15.669V15.8242V16.1733L72.3018 17.3953C72.5026 18.2411 72.529 19.1189 72.3794 19.9751Z" fill="#101010"/>
<path d="M88.6731 19.2186C88.4015 21.5268 88.1493 23.4084 88.1299 23.4084C88.1106 23.4084 88.3239 21.4687 88.5955 19.2186C88.867 16.9685 89.1192 15.0288 89.1386 15.0288C89.158 15.0288 89.0416 16.9103 88.6731 19.2186Z" fill="#101010"/>
<path d="M88.673 19.2186C88.5176 18.3983 88.5176 17.5561 88.673 16.7358V15.4944V15.0482C88.673 15.0482 88.77 15.475 89.0027 15.4556C89.1031 15.4821 89.2096 15.4711 89.3024 15.4247C89.3953 15.3782 89.468 15.2996 89.507 15.2034V15.9211C89.3906 17.0073 89.2549 18.0742 89.1385 19.1798C89.0221 20.2855 88.8669 21.3523 88.7311 22.4191L88.6342 23.1562C88.6154 23.0535 88.5596 22.9613 88.4774 22.897C88.3952 22.8326 88.2922 22.8006 88.188 22.8071C87.9359 22.8071 87.7419 23.1756 87.8001 23.1368V23.0205V22.6907C87.8001 22.3028 87.9553 21.8954 88.0135 21.4687C88.3044 19.9751 88.5372 19.044 88.673 19.0634C88.8407 19.8891 88.8407 20.74 88.673 21.5657C88.673 21.9924 88.673 22.3997 88.673 22.8071V23.1562V23.389C88.673 23.389 88.5178 23.7769 88.2656 23.7575C88.0135 23.7381 87.8389 23.6412 87.8001 23.389C87.7879 23.2924 87.7879 23.1946 87.8001 23.098V22.3416C87.8001 21.3329 87.9941 20.2273 88.1298 19.0828C88.2656 17.9384 88.4208 16.8134 88.576 15.8241L88.7117 15.087C88.7117 15.087 88.7117 15.087 88.7117 14.8349C88.7117 14.5827 89.1385 14.4663 89.2355 14.5439C89.3325 14.6215 89.6234 14.9706 89.5846 14.99V15.1452V15.4944C89.5846 15.9017 89.4682 16.309 89.3906 16.7358C89.0415 18.3263 88.8087 19.238 88.673 19.2186Z" fill="#101010"/>
<path d="M104.346 23.7964C103.337 25.8913 102.503 27.5789 102.406 27.5789C102.309 27.5789 103.182 25.8525 104.191 23.6994C105.199 21.5464 106.033 19.917 106.13 19.917C106.227 19.917 105.355 21.7015 104.346 23.7964Z" fill="#101010"/>
<path d="M104.346 23.7964C104.441 22.9622 104.691 22.153 105.083 21.4105C105.238 21.0226 105.413 20.6346 105.549 20.2661L105.684 19.9557C105.684 19.9557 105.684 20.3825 105.859 20.4407C105.935 20.513 106.035 20.5533 106.14 20.5533C106.245 20.5533 106.346 20.513 106.421 20.4407L106.111 21.1002C105.646 22.07 105.18 23.0399 104.715 24.0485L103.26 26.9969L102.949 27.6564C102.954 27.5532 102.924 27.4515 102.864 27.3672C102.805 27.2829 102.718 27.2209 102.62 27.1909C102.406 27.0745 102.077 27.4042 102.154 27.3654L102.329 27.0745L102.93 25.9882C103.687 24.6692 104.21 23.874 104.327 23.9321C104.443 23.9903 104.152 24.902 103.57 26.318L103.066 27.4624L102.93 27.7728V27.8698C102.93 27.8698 102.658 28.1995 102.445 28.0831C102.232 27.9667 102.057 27.831 102.115 27.5982L102.212 27.3072L102.503 26.6283C102.911 25.6973 103.376 24.6886 103.88 23.6412C104.385 22.5937 104.87 21.7015 105.355 20.6928L105.704 20.0527C105.74 19.9702 105.786 19.8921 105.84 19.82C105.956 19.626 106.363 19.6066 106.441 19.82C106.518 20.0333 106.654 20.3437 106.596 20.3437L106.441 20.654L105.859 21.7597C105.006 23.0593 104.559 23.8546 104.346 23.7964Z" fill="#101010"/>
<path d="M117.672 33.2236C116.023 34.8723 114.685 36.1913 114.665 36.1719C114.646 36.1525 115.965 34.8141 117.614 33.1654C119.262 31.5166 120.581 30.1782 120.601 30.1976C120.62 30.217 119.301 31.5554 117.672 33.2236Z" fill="#101010"/>
<path d="M117.672 33.2234C117.575 33.1071 118.137 32.3506 119.146 31.2837L119.961 30.3527L120.193 30.1005C120.193 30.1005 120.019 30.4885 120.193 30.6242C120.259 30.707 120.352 30.7627 120.456 30.7806C120.56 30.7985 120.667 30.7774 120.756 30.7212L120.252 31.2449C119.495 32.0208 118.758 32.7967 117.963 33.592L115.654 35.9003L115.131 36.4046C115.173 36.3072 115.18 36.1983 115.152 36.096C115.124 35.9937 115.062 35.9041 114.976 35.8421C114.82 35.6675 114.394 35.8421 114.471 35.8421L114.723 35.6093L115.654 34.7946C116.799 33.786 117.594 33.1847 117.594 33.301C117.594 33.4174 117.109 34.1545 116.101 35.2408C115.81 35.5511 115.538 35.8615 115.247 36.1524L115.014 36.4046C115.014 36.4046 114.646 36.6179 114.471 36.4046C114.384 36.3389 114.322 36.2447 114.298 36.1383C114.273 36.0319 114.286 35.9202 114.335 35.8227L114.51 35.5899L115.014 35.0468C115.693 34.2903 116.469 33.495 117.284 32.6609C118.098 31.8269 118.894 31.0704 119.65 30.3721L120.193 29.8677C120.25 29.8009 120.315 29.7422 120.387 29.6932C120.474 29.6286 120.58 29.5938 120.688 29.5938C120.796 29.5938 120.902 29.6286 120.989 29.6932C121.163 29.8289 120.989 30.2751 120.989 30.2557L120.736 30.5078L119.825 31.3613C118.525 32.7385 117.769 33.3204 117.672 33.2234Z" fill="#101010"/>
<path d="M127.215 46.4329C125.12 47.4803 123.433 48.3726 123.336 48.3726C123.239 48.3726 125.004 47.4997 127.099 46.4329C129.194 45.366 130.881 44.4932 130.881 44.5901C130.881 44.6871 129.291 45.4048 127.215 46.4329Z" fill="#101010"/>
<path d="M127.215 46.4329C127.215 46.3165 127.933 45.7928 129.252 45.0169L130.338 44.3962L130.629 44.2216C130.629 44.2216 130.338 44.5514 130.474 44.726C130.509 44.8268 130.58 44.9117 130.672 44.965C130.765 45.0184 130.873 45.0368 130.978 45.0169C130.978 45.0169 130.978 45.0169 130.881 45.0169L130.241 45.3467L127.312 46.8208L124.383 48.2562L123.724 48.5666C123.79 48.484 123.826 48.3814 123.826 48.2756C123.826 48.1699 123.79 48.0672 123.724 47.9847C123.724 47.7713 123.181 47.8295 123.239 47.8489H123.355L123.646 47.7131L124.81 47.2282C125.543 46.8229 126.346 46.5597 127.176 46.4523C127.176 46.5881 126.439 47.1118 125.12 47.8683L124.015 48.4696L123.704 48.6248H123.607C123.607 48.6248 123.181 48.6248 123.084 48.489C123.009 48.4068 122.967 48.2996 122.967 48.1884C122.967 48.0771 123.009 47.9699 123.084 47.8877C123.164 47.8301 123.248 47.7782 123.336 47.7325L123.995 47.364C124.888 46.8855 125.857 46.3812 126.905 45.851C127.952 45.3467 128.961 44.8617 129.873 44.4544L130.552 44.144H130.804C131.017 44.144 131.347 44.2992 131.327 44.4156C131.308 44.532 131.172 44.9975 131.133 44.9587L130.823 45.1139L129.679 45.6376C128.166 46.2583 127.273 46.6657 127.215 46.4329Z" fill="#101010"/>
<path d="M131.948 62.0478C129.64 62.3387 127.778 62.5715 127.778 62.5521C127.778 62.5327 129.717 62.2612 131.948 61.9702C134.179 61.6792 136.118 61.4271 136.118 61.4465C136.118 61.4659 134.256 61.7374 131.948 62.0478Z" fill="#101010"/>
<path d="M131.948 62.0479C131.948 61.8927 132.86 61.6599 134.353 61.3496L135.575 61.1168H135.905C135.905 61.1168 135.517 61.3302 135.595 61.5435C135.672 61.7569 135.75 61.9897 135.963 61.9703H135.226L131.987 62.4164L128.748 62.8237H128.011C128.108 62.7772 128.185 62.6952 128.225 62.5943C128.264 62.4935 128.264 62.3813 128.224 62.2806C128.224 62.0479 127.758 61.9509 127.817 61.9897H128.263H129.504C131.017 61.8927 131.968 61.8927 131.987 61.9897C132.006 62.0866 131.095 62.3776 129.582 62.6492L128.36 62.8625H128.011H127.836C127.836 62.8625 127.409 62.8625 127.39 62.5716C127.37 62.2806 127.39 62.1254 127.623 62.0285H127.914L128.651 61.9121C129.64 61.7375 130.746 61.5823 131.89 61.4271C133.034 61.272 134.159 61.1362 135.168 61.0586H135.905H136.177C136.39 61.0586 136.623 61.369 136.584 61.4853C136.545 61.6017 136.254 61.9703 136.216 61.9315H136.06H135.711L134.47 62.0479C133.638 62.2161 132.78 62.2161 131.948 62.0479Z" fill="#101010"/>
<path d="M168.182 54.4246C167.278 57.1574 166.109 59.795 164.69 62.2998V62.4938L164.361 63.1339L163.973 62.5326C162.319 60.265 160.89 57.8419 159.705 55.2974C161.59 57.3808 163.26 59.6488 164.69 62.067H163.953L164.05 61.8925C165.186 59.2768 166.569 56.7761 168.182 54.4246Z" fill="#101010"/>
</svg>
