<svg width="25" height="33" viewBox="0 0 25 33" fill="none" xmlns="http://www.w3.org/2000/svg">
<path d="M24.1372 10.6597C23.8319 9.8782 23.3874 9.15817 22.8252 8.53438C22.2721 7.90264 21.6176 7.36689 20.8884 6.94903C20.5437 6.74492 20.1866 6.56226 19.8193 6.40212C19.4452 6.23937 19.0601 6.10288 18.667 5.99367L18.542 5.93829C18.3268 5.8829 18.1185 5.83444 17.9033 5.79291C17.2808 5.67505 16.6487 5.61479 16.0151 5.61291C15.1742 5.60882 14.3356 5.70174 13.516 5.88983L13.0717 6.00752L12.8288 6.08367L12.4192 6.2152V2.51144C12.4133 2.35822 12.3971 2.20557 12.3706 2.05453C12.3512 1.9389 12.3209 1.82533 12.2803 1.7153C12.2436 1.60407 12.1995 1.49538 12.1484 1.38993C12.1156 1.32303 12.0785 1.25829 12.0374 1.19608C11.9351 1.03011 11.8165 0.874731 11.6833 0.732247C11.5781 0.628279 11.4644 0.53333 11.3432 0.448407L11.239 0.379178C11.0391 0.251672 10.8216 0.153734 10.5934 0.0884154C10.4672 0.0468521 10.3369 0.0189991 10.2047 0.0053404C10.1053 -0.00178013 10.0056 -0.00178013 9.90619 0.0053404C9.80681 -0.00166311 9.70706 -0.00166311 9.60768 0.0053404H9.34389C8.74161 0.073334 8.19043 0.3752 7.80973 0.845561C7.42902 1.31592 7.24945 1.91691 7.30989 2.51836V13.062C7.31709 13.1356 7.31709 13.2098 7.30989 13.2835C7.29643 13.3525 7.27548 13.4198 7.24741 13.4843C7.2285 13.5324 7.20527 13.5788 7.17799 13.6227C7.08238 13.7837 6.94624 13.9169 6.78307 14.0092C6.61989 14.1015 6.43536 14.1497 6.24777 14.1489H2.14507C1.9983 14.149 1.85187 14.1629 1.70772 14.1904C1.36568 14.2631 1.04645 14.4175 0.7775 14.6404C0.72336 14.6829 0.672324 14.7292 0.624777 14.7789C0.57493 14.8263 0.528532 14.8772 0.485937 14.9312C0.358324 15.0891 0.253201 15.2638 0.173549 15.4504C0.059555 15.7175 0.000537302 16.0047 0 16.295V17.2988C0.00215106 17.4718 0.0254623 17.6438 0.0694186 17.8111C0.0694186 17.8942 0.118013 17.9773 0.145781 18.0603C0.206836 18.2245 0.288474 18.3804 0.38875 18.5242C0.434064 18.5991 0.487616 18.6688 0.548415 18.7318C0.713814 18.9177 0.91132 19.0725 1.13154 19.1888C1.3642 19.314 1.61865 19.3939 1.88127 19.4241H6.49768L6.72677 19.2441L7.05998 18.9465L7.29601 18.7318C7.44873 18.5865 7.59451 18.4342 7.74724 18.2819L7.96938 18.0534C8.11516 17.8942 8.26094 17.7211 8.39978 17.548C8.53862 17.375 8.52474 17.4026 8.58027 17.3265C8.77716 17.0758 8.96023 16.8147 9.12869 16.5442C9.23976 16.3642 9.35083 16.1773 9.45496 15.9904C9.46373 15.966 9.47538 15.9428 9.48967 15.9211C9.58686 15.7411 9.6771 15.5612 9.76735 15.3812C10.5032 13.8789 11.0238 12.2381 11.8013 10.7913L11.843 10.729C11.9124 10.5974 11.9888 10.4659 12.0651 10.3343L12.1484 10.2028C12.2109 10.099 12.2803 9.99512 12.3498 9.89128L12.4539 9.73897L12.6621 9.46206L12.7802 9.31667C12.8565 9.21975 12.9398 9.12975 13.0231 9.03976L13.1342 8.91514C13.2527 8.78196 13.3803 8.65706 13.516 8.54131C15.2446 7.02519 17.5771 6.63058 19.9304 6.45751C20.2915 6.61403 20.6417 6.79443 20.9786 6.99749C21.6937 7.41807 22.3341 7.95376 22.8738 8.58284C23.4267 9.21099 23.8617 9.93326 24.158 10.7151C24.489 11.5643 24.6516 12.4695 24.637 13.3804V13.3112C24.6422 12.4036 24.4725 11.5035 24.1372 10.6597Z" fill="#5E13D3"/>
<path d="M13.2867 28.6109C13.1558 28.6249 13.0241 28.5932 12.914 28.5213C12.8038 28.4493 12.7221 28.3415 12.6827 28.2163C12.578 27.7625 12.5337 27.297 12.5508 26.8317V20.7395H7.24023V26.8317C7.24023 28.9132 7.66601 30.4616 8.51756 31.477C9.3691 32.4923 10.9588 33 13.2867 33C15.1888 33 16.1398 32.2777 16.1398 30.8331C16.1398 29.3032 15.1888 28.6109 13.2867 28.6109Z" fill="#5E13D3"/>
<path d="M22.8599 8.56901C22.3202 7.93993 21.6799 7.40424 20.9648 6.98366C20.6319 6.78587 20.2864 6.61012 19.9304 6.45752C17.591 6.64444 15.2585 7.03904 13.5369 8.56901C13.4012 8.68476 13.2736 8.80967 13.1551 8.94285L13.044 9.06746C12.9607 9.15746 12.8774 9.24746 12.801 9.34438L12.683 9.48976L12.4748 9.76668L12.3706 9.91898C12.3012 10.0228 12.2318 10.1267 12.1693 10.2305L12.086 10.362C12.0097 10.4936 11.9333 10.6251 11.8639 10.7567L11.8222 10.819C11.0447 12.2659 10.5241 13.9066 9.78822 15.4089C9.69798 15.5889 9.60773 15.7689 9.51054 15.9488C9.49625 15.9705 9.4846 15.9937 9.47583 16.0181C9.3717 16.205 9.26063 16.3919 9.14956 16.5719C8.98111 16.8424 8.79803 17.1035 8.60115 17.3542C8.54561 17.4304 8.47619 17.4996 8.42065 17.5757C8.36512 17.6519 8.13603 17.9219 7.99025 18.0811L7.76811 18.3096C7.61539 18.4619 7.4696 18.6142 7.31688 18.7596L7.08085 18.9742L6.74764 19.2719L6.51855 19.4518H22.4851C22.8288 19.432 23.1667 19.3548 23.4847 19.2234C23.7206 19.1226 23.9323 18.9729 24.1059 18.7843C24.2794 18.5958 24.4108 18.3726 24.4913 18.1296C24.6055 17.7103 24.6547 17.276 24.6371 16.8419V13.3804C24.6446 12.4755 24.4772 11.5777 24.1442 10.7359C23.8516 9.9418 23.4165 9.20752 22.8599 8.56901ZM19.9304 14.4189C19.9135 14.5837 19.8505 14.7405 19.7486 14.8715C19.6468 15.0024 19.5101 15.1022 19.3543 15.1596C19.2467 15.214 19.1278 15.2425 19.0072 15.2427H13.1273C13.065 15.2499 13.0021 15.2499 12.9399 15.2427C12.7013 15.2445 12.4704 15.1587 12.2912 15.0016C12.112 14.8446 11.997 14.6273 11.968 14.3912C11.968 14.315 11.968 14.2389 11.968 14.1627V13.2904C11.9612 13.1936 11.9612 13.0965 11.968 12.9997C12.0019 12.7103 12.0647 12.4251 12.1554 12.1482C12.3502 11.5442 12.7077 11.0052 13.1888 10.59C13.67 10.1749 14.2562 9.89968 14.8836 9.79437C15.456 9.69629 16.0427 9.71988 16.6052 9.8636C16.9132 9.93402 17.215 10.0289 17.5077 10.1474C17.7515 10.2503 17.9842 10.3779 18.2019 10.5282C18.8158 10.9606 19.2966 11.5551 19.5903 12.2451C19.8763 12.9321 19.993 13.6776 19.9304 14.4189Z" fill="#7F2FF0"/>
</svg>
